# Blender 3.6.23
# www.blender.org
mtllib puerta.mtl
o Plano
v -1.000000 4.015303 -0.000000
v 1.000000 4.015303 -0.000000
v -1.000000 -0.015303 0.000000
v 1.000000 -0.015303 0.000000
v -1.000000 -0.015303 0.200000
v -1.000000 4.015303 0.200000
v 1.000000 4.015303 0.200000
v 1.000000 -0.015303 0.200000
vn -0.0000 -0.0000 -1.0000
vn -0.0000 -0.0000 1.0000
vn 1.0000 -0.0000 -0.0000
vn -1.0000 -0.0000 -0.0000
vn -0.0000 1.0000 -0.0000
vt 0.000000 0.000000
vt 1.000000 0.000000
vt 1.000000 1.000000
vt 0.000000 1.000000
s 0
usemtl Material
f 1/1/1 2/2/1 4/3/1 3/4/1
f 6/1/2 5/4/2 8/3/2 7/2/2
f 2/2/3 7/2/3 8/3/3 4/3/3
f 3/4/4 5/4/4 6/1/4 1/1/4
f 4/3/5 3/4/5 5/4/5 8/3/5
f 1/1/5 6/1/5 7/2/5 2/2/5
o Picaporte
v -0.900000 1.900000 -0.000000
v -0.700000 1.900000 -0.000000
v -0.900000 2.100000 0.000000
v -0.700000 2.100000 0.000000
v -0.900000 2.100000 -0.032539
v -0.900000 1.900000 -0.032539
v -0.700000 1.900000 -0.032539
v -0.700000 2.100000 -0.032539
vn -0.0000 -0.0000 1.0000
vn -0.0000 -0.0000 -1.0000
vn 1.0000 -0.0000 -0.0000
vn -1.0000 -0.0000 -0.0000
vn -0.0000 1.0000 -0.0000
vn -0.0000 -1.0000 -0.0000
vt 0.000000 0.000000
vt 1.000000 0.000000
vt 1.000000 1.000000
vt 0.000000 1.000000
s 0
usemtl Material.001
f 9/5/6 10/6/6 12/7/6 11/8/6
f 14/5/7 13/8/7 16/7/7 15/6/7
f 10/6/8 15/6/8 16/7/8 12/7/8
f 11/8/9 13/8/9 14/5/9 9/5/9
f 12/7/10 16/7/10 13/8/10 11/8/10
f 9/5/11 14/5/11 15/6/11 10/6/11
o Picaporte.001
v -0.900000 1.893672 0.234152
v -0.700000 1.893672 0.234152
v -0.900000 2.093672 0.234152
v -0.700000 2.093672 0.234152
v -0.900000 2.093672 0.201614
v -0.900000 1.893672 0.201614
v -0.700000 1.893672 0.201614
v -0.700000 2.093672 0.201614
vn -0.0000 -0.0000 1.0000
vn -0.0000 -0.0000 -1.0000
vn 1.0000 -0.0000 -0.0000
vn -1.0000 -0.0000 -0.0000
vn -0.0000 1.0000 -0.0000
vn -0.0000 -1.0000 -0.0000
vt 0.000000 0.000000
vt 1.000000 0.000000
vt 1.000000 1.000000
vt 0.000000 1.000000
s 0
usemtl Material.001
f 17/9/12 18/10/12 20/11/12 19/12/12
f 22/9/13 21/12/13 24/11/13 23/10/13
f 18/10/14 23/10/14 24/11/14 20/11/14
f 19/12/15 21/12/15 22/9/15 17/9/15
f 20/11/16 24/11/16 21/12/16 19/12/16
f 17/9/17 22/9/17 23/10/17 18/10/17
