# Blender 5.1.2
# www.blender.org
mtllib monitor.mtl
o Cube
v -1.369756 0.130244 0.170830
v -1.369756 1.869756 0.170830
v -1.500000 0.000000 0.000000
v -1.500000 2.000000 0.000000
v 1.369756 0.130244 0.170830
v 1.369756 1.869756 0.170830
v 1.500000 0.000000 0.000000
v 1.500000 2.000000 0.000000
v -1.500000 0.000000 0.200000
v -1.500000 2.000000 0.200000
v 1.500000 2.000000 0.200000
v 1.500000 0.000000 0.200000
v 0.500000 0.000000 0.000000
v -0.500000 0.000000 0.000000
v -0.500000 0.000000 0.200000
v 0.500000 0.000000 0.200000
v 0.166667 0.000000 0.000000
v -0.166667 0.000000 0.000000
v -0.166667 0.000000 0.200000
v 0.166667 0.000000 0.200000
v 0.166667 -0.200000 0.000000
v -0.166667 -0.200000 0.000000
v -0.166667 -0.200000 0.200000
v 0.166667 -0.200000 0.200000
v 0.880000 -0.206752 -0.428000
v -0.880000 -0.206752 -0.428000
v -0.880000 -0.206752 0.628000
v 0.880000 -0.206752 0.628000
v 0.880000 -0.336172 -0.428000
v -0.880000 -0.336172 -0.428000
v -0.880000 -0.336172 0.628000
v 0.880000 -0.336172 0.628000
vn -1.0000 -0.0000 -0.0000
vn 1.0000 -0.0000 -0.0000
vn -0.0000 -1.0000 -0.0000
vn 0.2186 -0.0000 0.9758
vn -0.2186 -0.0000 0.9758
vn -0.0000 -0.0000 -1.0000
vn -0.0000 -0.0000 1.0000
vn -0.0000 1.0000 -0.0000
vn -0.0000 0.2186 0.9758
vn -0.0000 -0.2186 0.9758
vn -0.0095 1.0000 -0.0000
vn -0.0000 0.9999 -0.0158
vn 0.0095 1.0000 -0.0000
vn -0.0000 0.9999 0.0158
vt 0.901850 0.470442
vt 0.901850 0.662586
vt 0.885326 0.662586
vt 0.885326 0.470442
vt 0.025717 0.435988
vt 0.026790 0.531511
vt 0.008945 0.530788
vt 0.015260 0.435324
vt 0.368943 0.321611
vt 0.408787 0.321611
vt 0.408787 0.330878
vt 0.368943 0.330878
vt 0.050946 0.355270
vt 0.050946 0.957092
vt 0.012193 1.002153
vt 0.012193 0.310209
vt 0.866048 0.957092
vt 0.866048 0.355270
vt 0.904800 0.310209
vt 0.904800 1.002153
vt 0.289254 0.321611
vt 0.329098 0.321611
vt 0.329098 0.330878
vt 0.289254 0.330878
vt 0.263889 0.500000
vt 0.291667 0.500000
vt 0.291667 0.750000
vt 0.263889 0.750000
vt 0.272402 0.339525
vt 0.239244 0.339525
vt 0.239244 0.313821
vt 0.250297 0.313821
vt 0.253981 0.313821
vt 0.257665 0.313821
vt 0.261349 0.313821
vt 0.272402 0.313821
vt 0.208333 0.500000
vt 0.236111 0.500000
vt 0.236111 0.750000
vt 0.208333 0.750000
vt 0.131822 0.280035
vt 0.131822 0.188085
vt 0.904041 0.661084
vt 0.895564 0.752408
vt 0.887120 0.752250
vt 0.885842 0.660348
vt 0.309729 0.310209
vt 0.408908 0.310209
vt 0.508086 0.310209
vt 0.607265 0.310209
vt 0.000029 0.280035
vt 0.000029 0.188085
vt 0.375000 0.361111
vt 0.375000 0.388889
vt 0.375000 0.861111
vt 0.375000 0.888889
s 0
usemtl Material.001
f 9/1/1 10/2/1 4/3/1 3/4/1
f 7/5/2 8/6/2 11/7/2 12/8/2
f 13/9/3 7/10/3 12/11/3 16/12/3
f 1/13/4 2/14/4 10/15/4 9/16/4
f 6/17/5 5/18/5 12/19/5 11/20/5
f 3/21/3 14/22/3 15/23/3 9/24/3
f 17/25/3 13/26/3 16/27/3 20/28/3
f 4/29/6 8/30/6 7/31/6 13/32/6 17/33/6 18/34/6 14/35/6 3/36/6
f 6/17/7 2/14/7 1/13/7 5/18/7
f 14/37/3 18/38/3 19/39/3 15/40/3
f 17/41/2 20/41/2 24/42/2 21/42/2
f 8/43/8 4/44/8 10/45/8 11/46/8
f 5/18/9 1/13/9 9/16/9 15/47/9 19/48/9 20/49/9 16/50/9 12/19/9
f 2/14/10 6/17/10 11/20/10 10/15/10
f 23/39/11 22/38/11 26/38/11 27/39/11
f 20/41/7 19/51/7 23/52/7 24/42/7
f 19/51/1 18/51/1 22/52/1 23/52/1
f 18/51/6 17/41/6 21/42/6 22/52/6
f 25/25/2 28/28/2 32/28/2 29/25/2
f 22/53/12 21/54/12 25/54/12 26/53/12
f 21/25/13 24/28/13 28/28/13 25/25/13
f 24/55/14 23/56/14 27/56/14 28/55/14
f 30/38/3 29/25/3 32/28/3 31/39/3
f 28/55/7 27/56/7 31/56/7 32/55/7
f 27/39/1 26/38/1 30/38/1 31/39/1
f 26/53/6 25/54/6 29/54/6 30/53/6
